<svg width="685" height="426" viewBox="0 0 685 426" fill="none" xmlns="http://www.w3.org/2000/svg">
<path opacity="0.1" fill-rule="evenodd" clip-rule="evenodd" d="M342.615 310.625C479.8 185.173 656.446 32.7729 887.642 210.031C757.188 204.92 626.038 307.14 543.634 382.179C538.527 386.825 533.653 391.703 528.778 396.349C449.16 472.549 374.184 544.568 280.406 541.084C218.894 538.761 150.649 503.912 73.584 435.844C90.761 439.096 107.474 439.793 123.723 438.399C203.109 431.197 273.907 372.886 342.615 310.625ZM304.082 180.526C405.288 82.953 501.155 -9.04462 616.753 0.712703C684.533 6.52071 755.33 47.1765 831.467 124.538C612.575 7.91501 462.855 145.214 338.669 259.05C337.276 260.444 302.457 292.039 301.064 293.201V292.969C207.287 376.835 125.347 433.753 22.0518 371.492C93.0816 356.624 156.451 313.412 216.571 261.605C234.213 245.343 286.673 197.253 304.082 180.526ZM633.466 355.462C709.835 290.181 795.024 240 910.157 252.777C819.397 338.502 725.619 362.199 633.466 355.462ZM74.9766 255.333C102.135 243.949 133.24 243.252 167.594 249.524C114.902 292.271 59.6558 325.26 0 334.088C20.6589 294.129 45.2643 267.878 75.208 255.333H74.9766Z" fill="white"/>
</svg>
