<svg width="845" height="290" viewBox="0 0 845 290" fill="none" xmlns="http://www.w3.org/2000/svg">
<path opacity="0.1" fill-rule="evenodd" clip-rule="evenodd" d="M342.615 174.625C479.8 49.1734 656.446 -103.227 887.642 74.0311C757.188 68.9201 626.038 171.14 543.634 246.179C538.527 250.825 533.653 255.703 528.778 260.349C449.16 336.549 374.184 408.568 280.406 405.084C218.894 402.761 150.649 367.912 73.584 299.844C90.761 303.096 107.474 303.793 123.723 302.399C203.109 295.197 273.907 236.886 342.615 174.625ZM304.082 44.5262C405.288 -53.0471 501.155 -145.045 616.753 -135.287C684.533 -129.479 755.331 -88.8238 831.468 -11.4621C612.575 -128.085 462.855 9.21414 338.669 123.05C337.276 124.444 302.457 156.039 301.064 157.201V156.969C207.287 240.835 125.347 297.753 22.0518 235.492C93.0816 220.624 156.451 177.412 216.571 125.605C234.213 109.343 286.673 61.253 304.082 44.5262ZM633.466 219.462C709.834 154.181 795.024 104 910.157 116.777C819.397 202.502 725.619 226.199 633.466 219.462ZM74.9766 119.333C102.135 107.949 133.24 107.252 167.594 113.524C114.902 156.271 59.6558 189.26 0 198.088C20.6589 158.129 45.2643 131.878 75.208 119.333H74.9766Z" fill="white"/>
</svg>
