<svg width="185" height="32" viewBox="0 0 185 32" fill="none" xmlns="http://www.w3.org/2000/svg">
<g clip-path="url(#clip0_204_55)">
<path d="M3.96304 15.5555C2.38094 16.2267 1.07894 17.6109 0 19.7406C3.14216 19.2679 6.05869 17.5155 8.84942 15.2474C7.03907 14.9183 5.39731 14.9483 3.96434 15.5555H3.96304Z" fill="url(#paint0_linear_204_55)"/>
<path d="M1.15796 21.7398C6.60844 25.0435 10.9333 22.0219 15.8858 17.5665C14.3257 16.9227 12.837 16.3442 11.4274 15.9003C8.25798 18.6529 4.91222 20.9459 1.15796 21.7398Z" fill="url(#paint1_linear_204_55)"/>
<path d="M32.551 2.03787C26.4469 1.51555 21.3959 6.4097 16.0453 11.5911C15.1284 12.4791 12.361 15.0319 11.426 15.9016C12.8525 16.4004 14.3957 16.9436 15.8844 17.5678C15.9558 17.5012 17.7908 15.8245 17.8634 15.7579C24.4213 9.70946 32.3241 2.42439 43.8812 8.60736C39.8637 4.50714 36.1211 2.34343 32.551 2.03787Z" fill="url(#paint2_linear_204_55)"/>
<path d="M48.0376 15.4132C41.9672 14.7303 37.4647 17.4006 33.4316 20.8662C38.2999 21.2279 43.2381 19.9692 48.0376 15.4132Z" fill="url(#paint3_linear_204_55)"/>
<path d="M18.0854 18.4884C21.3923 19.8843 24.9728 21.3859 28.6959 22.287C33.048 18.2977 39.9678 12.8734 46.8538 13.1437C34.6548 3.73541 25.3268 11.8196 18.0854 18.4884Z" fill="url(#paint4_linear_204_55)"/>
<path d="M6.53726 25.2759C5.67618 25.3543 4.79564 25.319 3.89307 25.1467C7.95986 28.765 11.5624 30.6062 14.807 30.729C19.753 30.9157 23.7174 27.091 27.9112 23.0417C28.1706 22.791 28.4313 22.5403 28.6945 22.287C24.9714 21.3859 21.3909 19.8843 18.084 18.4884C14.4556 21.7999 10.7182 24.8933 6.53596 25.2759H6.53726Z" fill="url(#paint5_linear_204_55)"/>
<path d="M73.8546 31.6749H70.0588V23.9628H61.8487V31.6749H58.053V13.8154H61.8487V20.6617H70.0588V13.8154H73.8546V31.6749Z" fill="white"/>
<path d="M97.6418 22.7458C97.6418 27.9951 93.2832 32 87.8016 32C84.203 32 81.1944 30.2946 79.5916 27.5616L82.4588 25.6133C83.6959 27.508 85.4389 28.6167 87.7731 28.6167C90.8375 28.6167 93.199 26.7219 93.6775 23.8544H85.4116V20.7427H93.4531C92.666 18.3883 90.5016 16.8736 87.7731 16.8736C85.4389 16.8736 83.6959 17.9835 82.4588 19.8769L79.5916 17.9287C81.2229 15.1956 84.203 13.4902 87.7731 13.4902C93.2845 13.4902 97.6418 17.4951 97.6418 22.7445V22.7458Z" fill="white"/>
<path d="M117.774 26.4255C117.774 29.5098 115.272 31.6749 111.672 31.6749H103.406V13.8154H109.985C113.415 13.8154 115.861 15.8446 115.861 18.7944C115.861 20.1198 115.355 21.2023 114.484 22.0145C116.536 22.7184 117.774 24.2605 117.774 26.4255ZM107.061 16.9545V21.0404H109.675C111.249 21.0404 112.094 20.2021 112.094 18.9838C112.094 17.7654 111.251 16.9545 109.675 16.9545H107.061ZM114.034 26.2897C114.034 24.9095 113.049 24.0437 111.391 24.0437H107.061V28.5357H111.391C113.049 28.5357 114.034 27.6974 114.034 26.2897Z" fill="white"/>
<path d="M139.48 13.4902V31.6749H135.684V20.7153L124.634 32H123.396V13.8154H127.192V24.694L138.214 13.4916H139.48V13.4902Z" fill="white"/>
<path d="M164.924 22.7458C164.924 27.9951 160.481 32 155.027 32C149.573 32 145.187 27.9951 145.187 22.7458C145.187 17.4964 149.573 13.4916 155.027 13.4916C160.481 13.4916 164.924 17.4964 164.924 22.7458ZM149.095 22.7458C149.095 26.2101 151.598 28.618 155.055 28.618C158.513 28.618 161.016 26.2101 161.016 22.7458C161.016 19.2815 158.457 16.8736 155.055 16.8736C151.654 16.8736 149.095 19.3089 149.095 22.7458Z" fill="white"/>
<path d="M185 13.8154V31.6749H181.204V17.1165H176.566C176.481 28.5905 173.22 31.4855 168.524 31.8107V28.3738C171.504 28.0225 172.938 24.9369 172.938 17.1165V13.8154H185Z" fill="white"/>
</g>
<defs>
<linearGradient id="paint0_linear_204_55" x1="0" y1="17.3902" x2="8.84942" y2="17.3902" gradientUnits="userSpaceOnUse">
<stop stop-color="#3166AD"/>
<stop offset="0.9" stop-color="#489EC5"/>
</linearGradient>
<linearGradient id="paint1_linear_204_55" x1="1.15796" y1="19.52" x2="15.8858" y2="19.52" gradientUnits="userSpaceOnUse">
<stop stop-color="#3166AD"/>
<stop offset="0.9" stop-color="#489EC5"/>
</linearGradient>
<linearGradient id="paint2_linear_204_55" x1="11.4273" y1="9.78389" x2="43.8812" y2="9.78389" gradientUnits="userSpaceOnUse">
<stop stop-color="#3166AD"/>
<stop offset="0.9" stop-color="#489EC5"/>
</linearGradient>
<linearGradient id="paint3_linear_204_55" x1="33.4303" y1="18.1162" x2="48.0376" y2="18.1162" gradientUnits="userSpaceOnUse">
<stop stop-color="#3166AD"/>
<stop offset="0.9" stop-color="#489EC5"/>
</linearGradient>
<linearGradient id="paint4_linear_204_55" x1="18.0854" y1="15.5764" x2="46.8538" y2="15.5764" gradientUnits="userSpaceOnUse">
<stop stop-color="#3166AD"/>
<stop offset="0.9" stop-color="#489EC5"/>
</linearGradient>
<linearGradient id="paint5_linear_204_55" x1="3.89436" y1="24.6126" x2="28.6958" y2="24.6126" gradientUnits="userSpaceOnUse">
<stop stop-color="#3166AD"/>
<stop offset="0.9" stop-color="#489EC5"/>
</linearGradient>
<clipPath id="clip0_204_55">
<rect width="185" height="32" fill="white"/>
</clipPath>
</defs>
</svg>
